<svg width="400" height="1238" viewBox="0 0 400 1238" fill="none" xmlns="http://www.w3.org/2000/svg">
<g id="front-outline-body">
<g id="outline-front" filter="url(#filter0_d_2013_289)">
<path d="M146 121.5C149 123.5 151 127.5 151 127.5C151 127.5 151.756 134.383 152.534 143C152.534 143 162.398 158.339 171 166L171.178 166.158C176.29 170.712 179.318 173.409 185.5 176.5C189.5 178.5 195.5 179 199.5 179C203.5 179 209.563 178.5 213.563 176.5C219.744 173.409 222.772 170.712 227.885 166.158L228.063 166C236.664 158.339 246.529 143 246.529 143C247.306 134.383 248.063 127.5 248.063 127.5C248.063 127.5 250.063 123.5 253.063 121.5C256.063 119.5 260.563 117 264.563 108C268.563 98.9999 267.563 88.4999 267.563 88.4999C267.563 88.4999 266.063 81.9999 263.063 79.4999C260.063 76.9999 257.563 79.4999 256.063 80.6388C254.563 81.7777 253.419 84.259 253.316 83.8609C252.612 81.1465 254.316 74.3609 256.316 67.3609C258.316 60.3609 258.063 56.9999 258.063 51.9999C257.563 45.4999 256.06 40.4951 252.063 32.4999C248.063 24.4999 241.063 17.9999 241.063 17.9999C241.063 17.9999 233.846 11.8749 228.563 9C222.701 5.81054 215.625 3.50001 212.563 3C209.5 2.5 203.699 1.8964 198 2.00001C193.493 2.08194 186.5 3 186.5 3C182.5 3.49987 176.362 5.81054 170.5 9C165.216 11.8749 158 17.9999 158 17.9999C158 17.9999 151 24.4999 147 32.4999C143.002 40.4951 141.5 45.4999 141 51.9999C141 56.9999 140.747 60.3609 142.747 67.3609C144.747 74.3609 146.45 81.1465 145.747 83.8609C145.644 84.259 144.5 81.7777 143 80.6388C141.5 79.4999 139 76.9999 136 79.4999C133 81.9999 131.5 88.4999 131.5 88.4999C131.5 88.4999 130.5 98.9999 134.5 108C138.5 117 143 119.5 146 121.5Z" fill="#464646"/>
<path d="M17 702C24.5 711.5 37.5 725.5 40 727C42.5 728.5 45.5 728.5 50.5 728L51.1507 727.935C55.5533 727.497 56.2032 727.432 60.5 726C65 724.5 64.5 724.5 65.5 724C66.5 723.5 68 721.5 68.5 720C69 718.5 70 713.5 71.5 711C73 708.5 78.5 706 80.5 701.5C82.5 697 83 693.5 83 691C83 688.5 81.5001 682.5 80.5 679.5C79.4999 676.5 64 651.5 63 647.5C62 643.5 60.5 629 60.5 629C60.5 629 57 599.5 57.5 595.5C58 591.5 60 582 60.5 580.5C61 579 71.5 547 71.5 547L77 529.5C77 529.5 79 523.5 79.5 519C80 514.5 79.5 490 79.5 488C79.5 486 78.5 478 78 476C77.5 474 74 464 73.5 461.5C73 459 71.5 452 71.5 447.5C71.5 443 77 426.5 77 426.5C77 426.5 81.5 411.5 82 409.5C82.5 407.5 84.5 388.5 84.5 388.5C84.5 388.5 86 377 86 375.5C86 374 95.9943 401.484 97.9983 406.995L98 407C100 412.5 109 433 109.5 436C110 439 109 446.5 109 446.5C109 446.5 106.5 459.5 106.5 462C106.5 464.5 106 469 106.5 473C107 477 109 487 109 488.5C109 490 109 494 108 496.5C107 499 103.5 505.5 102.5 508C101.5 510.5 100.5 519 100.5 519L99.5 534.5C99.5 534.5 99 552.5 98 557C97 561.5 93.5 579 93.5 579C93.5 579 90.5 591 90 593.5C89.5 596 88 608.5 87.5 611.5C87 614.5 86.5 627 86.5 627C86.5 627 85.5 642 85.5 645.5V701.5C85.5 708 86 718.5 86.5 721.5C87 724.5 93.5 759.5 93.5 759.5C93.5 759.5 101 790.5 104.5 803C108 815.5 109 818.5 110.5 821.5C112 824.5 117.5 833 119.5 837.5C121.5 842 119 857.5 120 866C121 874.5 123 882 123 888C123 894 116.5 916.5 116.5 916.5C116.5 916.5 112.152 934.053 110.5 945.5C108.599 958.677 107.795 966.188 108 979.5C108.187 991.661 109.5 1001.5 111 1010.5L111 1010.5C112.5 1019.5 114 1028.5 116 1035C118 1041.5 119 1045 122.5 1055.5C126 1066 127.5 1070.5 129.5 1077C131.5 1083.5 133.5 1090 135.5 1097.5C137.5 1105 140.5 1120.5 140.5 1120.5L144.5 1140L147.5 1156C147.5 1156 149 1164 149 1166.5C149 1169 147 1177 144.5 1181.5C142 1186 138 1191 137 1192.5C136 1194 130 1202 126 1205.5C122 1209 120.5 1210.5 115 1212C109.5 1213.5 104 1215 102 1216.5C100 1218 100 1218 99 1219.5C98 1221 98 1223.5 98 1223.5C98 1223.5 98 1225 98.5 1226C99 1227 99 1227.5 101 1228C103 1228.5 108 1228.5 108 1228.5H119C119 1228.5 188 1227.5 190 1227.5C192 1227.5 197.5 1227.5 199 1225.5C200.5 1223.5 198.5 1222 197 1220C195.5 1218 193.5 1214 193 1212.5C192.5 1211 191 1206 190.5 1204C190 1202 189 1195 189 1192.5C189 1190 189 1189 189.5 1187C190 1185 190.5 1182.5 190.5 1180C190.5 1177.5 190.5 1175 190 1172.5C189.5 1170 188 1166.5 188 1166.5C188 1166.5 187 1163.5 186 1160C185 1156.5 184.5 1149 184.5 1149L184 1138L183.5 1120.5C183.5 1120.5 183 1108 183 1104V1085.5C183 1084.5 183.5 1075 183.5 1075L184.5 1062C184.5 1062 185.143 1053 185.5 1050.5C185.857 1048 186 1045 187.5 1038C189 1031 197 1009.5 198 985.5C199 961.5 196 941.5 196 941.5C194.233 931.206 187.199 919.371 186.5 916.5C185.821 913.709 185.707 912.042 185.517 909.243L185.5 909C185.287 905.883 185.239 904.113 185.5 901C185.715 898.44 185.914 897 186.5 894.5C186.965 892.515 188 889.5 188 889.5C188 889.5 189.19 884.971 189.5 882C189.844 878.698 190 876.819 190 873.5C190 869.79 190.169 867.706 190 864C189.884 861.457 189.81 860.027 189.5 857.5C188.842 852.139 188.203 849.125 186.5 844L186.33 843.49C185.447 840.837 184.979 839.431 184.5 836.5L184.412 835.962C183.978 833.315 183.878 832.706 184 830.5C184.201 826.858 185.415 825.042 186.5 821.5C187.332 818.781 187.916 817.282 188.5 814.5C189.107 811.608 189.132 809.932 189.5 807C190.428 799.597 190.92 795.438 191.5 788C192.548 774.562 192.5 753.5 192.5 753.5L194 699C194 699 194 661.5 194.5 660C195 658.5 197 657.5 199.5 657.5C202 657.5 204.063 658.5 204.563 660C205.063 661.5 205.063 699 205.063 699L206.563 753.5C206.563 753.5 206.514 774.562 207.563 788C208.143 795.438 208.635 799.597 209.563 807C209.93 809.932 209.956 811.608 210.563 814.5C211.146 817.282 211.73 818.781 212.563 821.5C213.647 825.042 214.861 826.858 215.063 830.5C215.185 832.706 215.085 833.315 214.651 835.962L214.563 836.5C214.084 839.431 213.616 840.837 212.732 843.49L212.563 844C210.859 849.125 210.221 852.139 209.563 857.5C209.252 860.027 209.178 861.457 209.063 864C208.894 867.706 209.063 869.79 209.063 873.5C209.063 876.819 209.218 878.698 209.563 882C209.872 884.971 211.063 889.5 211.063 889.5C211.063 889.5 212.098 892.515 212.563 894.5C213.148 897 213.348 898.44 213.563 901C213.824 904.113 213.775 905.883 213.563 909L213.546 909.243C213.355 912.042 213.242 913.709 212.563 916.5C211.864 919.371 204.829 931.206 203.063 941.5C203.063 941.5 200.063 961.5 201.063 985.5C202.063 1009.5 210.063 1031 211.563 1038C213.063 1045 213.205 1048 213.563 1050.5C213.92 1053 214.563 1062 214.563 1062L215.563 1075C215.563 1075 216.063 1084.5 216.063 1085.5V1104C216.063 1108 215.563 1120.5 215.563 1120.5L215.063 1138L214.563 1149C214.563 1149 214.063 1156.5 213.063 1160C212.063 1163.5 211.063 1166.5 211.063 1166.5C211.063 1166.5 209.563 1170 209.063 1172.5C208.563 1175 208.563 1177.5 208.563 1180C208.563 1182.5 209.063 1185 209.563 1187C210.063 1189 210.063 1190 210.063 1192.5C210.063 1195 209.063 1202 208.563 1204C208.063 1206 206.563 1211 206.063 1212.5C205.563 1214 203.563 1218 202.063 1220C200.563 1222 198.563 1223.5 200.063 1225.5C201.563 1227.5 207.063 1227.5 209.063 1227.5C211.063 1227.5 280.063 1228.5 280.063 1228.5H291.063C291.063 1228.5 296.063 1228.5 298.063 1228C300.063 1227.5 300.063 1227 300.563 1226C301.063 1225 301.063 1223.5 301.063 1223.5C301.063 1223.5 301.063 1221 300.063 1219.5C299.063 1218 299.063 1218 297.063 1216.5C295.063 1215 289.563 1213.5 284.063 1212C278.563 1210.5 277.063 1209 273.063 1205.5C269.063 1202 263.063 1194 262.063 1192.5C261.063 1191 257.063 1186 254.563 1181.5C252.063 1177 250.063 1169 250.063 1166.5C250.063 1164 251.563 1156 251.563 1156L254.563 1140L258.563 1120.5C258.563 1120.5 261.563 1105 263.563 1097.5C265.563 1090 267.563 1083.5 269.563 1077C271.563 1070.5 273.063 1066 276.563 1055.5C280.063 1045 281.063 1041.5 283.063 1035C285.062 1028.5 286.562 1019.5 288.062 1010.5L288.062 1010.5L288.063 1010.5C289.563 1001.5 290.875 991.661 291.063 979.5C291.267 966.188 290.464 958.677 288.563 945.5C286.911 934.053 282.563 916.5 282.563 916.5C282.563 916.5 276.063 894 276.063 888C276.063 882 278.063 874.5 279.063 866C280.063 857.5 277.563 842 279.563 837.5C281.563 833 287.063 824.5 288.563 821.5C290.063 818.5 291.063 815.5 294.563 803C298.063 790.5 305.563 759.5 305.563 759.5C305.563 759.5 312.063 724.5 312.563 721.5C313.063 718.5 313.563 708 313.563 701.5V645.5C313.563 642 312.563 627 312.563 627C312.563 627 312.063 614.5 311.563 611.5C311.063 608.5 309.563 596 309.063 593.5C308.563 591 305.563 579 305.563 579C305.563 579 302.063 561.5 301.063 557C300.063 552.5 299.563 534.5 299.563 534.5L298.563 519C298.563 519 297.563 510.5 296.563 508C295.563 505.5 292.063 499 291.063 496.5C290.063 494 290.063 490 290.063 488.5C290.063 487 292.063 477 292.563 473C293.063 469 292.563 464.5 292.563 462C292.563 459.5 290.063 446.5 290.063 446.5C290.063 446.5 289.063 439 289.563 436C290.063 433 299.063 412.5 301.063 407L301.064 406.995C303.068 401.484 313.063 374 313.063 375.5C313.063 377 314.563 388.5 314.563 388.5C314.563 388.5 316.563 407.5 317.063 409.5C317.563 411.5 322.063 426.5 322.063 426.5C322.063 426.5 327.563 443 327.563 447.5C327.563 452 326.063 459 325.563 461.5C325.063 464 321.563 474 321.063 476C320.563 478 319.563 486 319.563 488C319.563 490 319.063 514.5 319.563 519C320.063 523.5 322.063 529.5 322.063 529.5L327.563 547C327.563 547 338.063 579 338.563 580.5C339.063 582 341.063 591.5 341.563 595.5C342.063 599.5 338.563 629 338.563 629C338.563 629 337.063 643.5 336.063 647.5C335.063 651.5 319.563 676.5 318.563 679.5C317.562 682.5 316.063 688.5 316.063 691C316.063 693.5 316.563 697 318.563 701.5C320.563 706 326.063 708.5 327.563 711C329.063 713.5 330.063 718.5 330.563 720C331.063 721.5 332.563 723.5 333.563 724C334.563 724.5 334.063 724.5 338.563 726C342.859 727.432 343.509 727.497 347.912 727.935L348.563 728C353.563 728.5 356.563 728.5 359.063 727C361.563 725.5 374.563 711.5 382.063 702C388.063 694.4 378.063 659.5 374.563 646.5C373.563 640.5 372.963 632.3 374.563 617.5C376.454 600 375.916 603.21 379.063 588C382.063 573.5 383.063 563.5 385.063 556C387.063 548.5 396.563 507 392.563 485.5C388.563 464 385.563 463.5 381.063 450C381.063 447 379.563 449.5 381.063 437.5C382.563 425.5 382.563 399 382.563 390.5C382.563 383.3 381.896 376.5 381.563 374C381.063 370.167 379.763 361.6 378.563 358C377.063 353.5 375.063 342 375.063 340C375.063 338 375.563 331.5 376.063 330C376.563 328.5 379.563 320 380.063 317.5C380.563 315 382.063 307 382.563 302.5C383.063 298 383.063 287 382.563 282.5C382.063 278 382.063 277 380.063 270.5C378.063 264 374.563 256 372.063 251.5C369.563 247 367.063 243 365.563 240.5C364.063 238 362.063 235 356.563 229.5C351.063 224 345.063 220.5 338.563 218.5C332.063 216.5 331.563 216 316.563 214C305.893 212.577 303.319 212.167 300.563 211.148C299.444 210.735 298.295 210.222 296.563 209.5C290.563 207 284.063 202.5 281.063 200.5C278.663 198.9 248.063 180 245.563 176.5C245.165 175.944 244.957 174.327 244.889 172C244.693 165.381 245.625 153.018 246.529 143C246.529 143 236.664 158.339 228.063 166L227.885 166.158C222.772 170.712 219.744 173.409 213.563 176.5C209.563 178.5 203.5 179 199.5 179C195.5 179 189.5 178.5 185.5 176.5C179.318 173.409 176.29 170.712 171.178 166.158L171 166C162.398 158.339 152.534 143 152.534 143C153.437 153.018 154.369 165.381 154.174 172C154.105 174.327 153.897 175.944 153.5 176.5C151 180 120.4 198.9 118 200.5C115 202.5 108.5 207 102.5 209.5C100.768 210.222 99.6189 210.735 98.5 211.148C95.7437 212.167 93.1692 212.577 82.5 214C67.5 216 67 216.5 60.5 218.5C54 220.5 48 224 42.5 229.5C37 235 35 238 33.5 240.5C32 243 29.5 247 27 251.5C24.5 256 21 264 19 270.5C17 277 17 278 16.5 282.5C16 287 16 298 16.5 302.5C17 307 18.5 315 19 317.5C19.5 320 22.5 328.5 23 330C23.5 331.5 24 338 24 340C24 342 22 353.5 20.5 358C19.3 361.6 18 370.167 17.5 374C17.1667 376.5 16.5 383.3 16.5 390.5C16.5 399 16.5 425.5 18 437.5C19.5 449.5 18 447 18 450C13.5 463.5 10.5 464 6.5 485.5C2.5 507 12 548.5 14 556C16 563.5 17 573.5 20 588C23.1469 603.21 22.6081 600 24.5 617.5C26.1 632.3 25.5 640.5 24.5 646.5C21 659.5 11 694.4 17 702Z" fill="#464646"/>
<path d="M86 375.5C86 377 84.5 388.5 84.5 388.5C84.5 388.5 82.5 407.5 82 409.5C81.5 411.5 77 426.5 77 426.5C77 426.5 71.5 443 71.5 447.5C71.5 452 73 459 73.5 461.5C74 464 77.5 474 78 476C78.5 478 79.5 486 79.5 488C79.5 490 80 514.5 79.5 519C79 523.5 77 529.5 77 529.5L71.5 547C71.5 547 61 579 60.5 580.5C60 582 58 591.5 57.5 595.5C57 599.5 60.5 629 60.5 629C60.5 629 62 643.5 63 647.5C64 651.5 79.4999 676.5 80.5 679.5C81.5001 682.5 83 688.5 83 691C83 693.5 82.5 697 80.5 701.5C78.5 706 73 708.5 71.5 711C70 713.5 69 718.5 68.5 720C68 721.5 66.5 723.5 65.5 724C64.5 724.5 65 724.5 60.5 726C56.2032 727.432 55.5533 727.497 51.1507 727.935L50.5 728C45.5 728.5 42.5 728.5 40 727C37.5 725.5 24.5 711.5 17 702C11 694.4 21 659.5 24.5 646.5C25.5 640.5 26.1 632.3 24.5 617.5C22.6081 600 23.1469 603.21 20 588C17 573.5 16 563.5 14 556C12 548.5 2.5 507 6.5 485.5C10.5 464 13.5 463.5 18 450C18 447 19.5 449.5 18 437.5C16.5 425.5 16.5 399 16.5 390.5C16.5 383.3 17.1667 376.5 17.5 374C18 370.167 19.3 361.6 20.5 358C22 353.5 24 342 24 340C24 338 23.5 331.5 23 330C22.5 328.5 19.5 320 19 317.5C18.5 315 17 307 16.5 302.5C16 298 16 287 16.5 282.5C17 278 17 277 19 270.5C21 264 24.5 256 27 251.5C29.5 247 32 243 33.5 240.5C35 238 37 235 42.5 229.5C48 224 54 220.5 60.5 218.5C67 216.5 67.5 216 82.5 214C93.1692 212.577 95.7437 212.167 98.5 211.148M86 375.5C86 374 95.9943 401.484 97.9983 406.995L98 407C100 412.5 109 433 109.5 436C110 439 109 446.5 109 446.5C109 446.5 106.5 459.5 106.5 462C106.5 464.5 106 469 106.5 473C107 477 109 487 109 488.5C109 490 109 494 108 496.5C107 499 103.5 505.5 102.5 508C101.5 510.5 100.5 519 100.5 519L99.5 534.5C99.5 534.5 99 552.5 98 557C97 561.5 93.5 579 93.5 579C93.5 579 90.5 591 90 593.5C89.5 596 88 608.5 87.5 611.5C87 614.5 86.5 627 86.5 627C86.5 627 85.5 642 85.5 645.5V701.5C85.5 708 86 718.5 86.5 721.5C87 724.5 93.5 759.5 93.5 759.5C93.5 759.5 101 790.5 104.5 803C108 815.5 109 818.5 110.5 821.5C112 824.5 117.5 833 119.5 837.5C121.5 842 119 857.5 120 866C121 874.5 123 882 123 888C123 894 116.5 916.5 116.5 916.5C116.5 916.5 112.152 934.053 110.5 945.5C108.599 958.677 107.795 966.188 108 979.5C108.187 991.661 109.5 1001.5 111 1010.5L111 1010.5C112.5 1019.5 114 1028.5 116 1035C118 1041.5 119 1045 122.5 1055.5C126 1066 127.5 1070.5 129.5 1077C131.5 1083.5 133.5 1090 135.5 1097.5C137.5 1105 140.5 1120.5 140.5 1120.5L144.5 1140L147.5 1156C147.5 1156 149 1164 149 1166.5C149 1169 147 1177 144.5 1181.5C142 1186 138 1191 137 1192.5C136 1194 130 1202 126 1205.5C122 1209 120.5 1210.5 115 1212C109.5 1213.5 104 1215 102 1216.5C100 1218 100 1218 99 1219.5C98 1221 98 1223.5 98 1223.5C98 1223.5 98 1225 98.5 1226C99 1227 99 1227.5 101 1228C103 1228.5 108 1228.5 108 1228.5H119C119 1228.5 188 1227.5 190 1227.5C192 1227.5 197.5 1227.5 199 1225.5C200.5 1223.5 198.5 1222 197 1220C195.5 1218 193.5 1214 193 1212.5C192.5 1211 191 1206 190.5 1204C190 1202 189 1195 189 1192.5C189 1190 189 1189 189.5 1187C190 1185 190.5 1182.5 190.5 1180C190.5 1177.5 190.5 1175 190 1172.5C189.5 1170 188 1166.5 188 1166.5C188 1166.5 187 1163.5 186 1160C185 1156.5 184.5 1149 184.5 1149L184 1138L183.5 1120.5C183.5 1120.5 183 1108 183 1104V1085.5C183 1084.5 183.5 1075 183.5 1075L184.5 1062C184.5 1062 185.143 1053 185.5 1050.5C185.857 1048 186 1045 187.5 1038C189 1031 197 1009.5 198 985.5C199 961.5 196 941.5 196 941.5C194.233 931.206 187.199 919.371 186.5 916.5C185.821 913.709 185.707 912.042 185.517 909.243L185.5 909C185.287 905.883 185.239 904.113 185.5 901C185.715 898.44 185.914 897 186.5 894.5C186.965 892.515 188 889.5 188 889.5C188 889.5 189.19 884.971 189.5 882C189.844 878.698 190 876.819 190 873.5C190 869.79 190.169 867.706 190 864C189.884 861.457 189.81 860.027 189.5 857.5C188.842 852.139 188.203 849.125 186.5 844L186.33 843.49C185.447 840.837 184.979 839.431 184.5 836.5L184.412 835.962C183.978 833.315 183.878 832.706 184 830.5C184.201 826.858 185.415 825.042 186.5 821.5C187.332 818.781 187.916 817.282 188.5 814.5C189.107 811.608 189.132 809.932 189.5 807C190.428 799.597 190.92 795.438 191.5 788C192.548 774.562 192.5 753.5 192.5 753.5L194 699C194 699 194 661.5 194.5 660C195 658.5 197 657.5 199.5 657.5C202 657.5 204.063 658.5 204.563 660C205.063 661.5 205.063 699 205.063 699L206.563 753.5C206.563 753.5 206.514 774.562 207.563 788C208.143 795.438 208.635 799.597 209.563 807C209.93 809.932 209.956 811.608 210.563 814.5C211.146 817.282 211.73 818.781 212.563 821.5C213.647 825.042 214.861 826.858 215.063 830.5C215.185 832.706 215.085 833.315 214.651 835.962L214.563 836.5C214.084 839.431 213.616 840.837 212.732 843.49L212.563 844C210.859 849.125 210.221 852.139 209.563 857.5C209.252 860.027 209.178 861.457 209.063 864C208.894 867.706 209.063 869.79 209.063 873.5C209.063 876.819 209.218 878.698 209.563 882C209.872 884.971 211.063 889.5 211.063 889.5C211.063 889.5 212.098 892.515 212.563 894.5C213.148 897 213.348 898.44 213.563 901C213.824 904.113 213.775 905.883 213.563 909L213.546 909.243C213.355 912.042 213.242 913.709 212.563 916.5C211.864 919.371 204.829 931.206 203.063 941.5C203.063 941.5 200.063 961.5 201.063 985.5C202.063 1009.5 210.063 1031 211.563 1038C213.063 1045 213.205 1048 213.563 1050.5C213.92 1053 214.563 1062 214.563 1062L215.563 1075C215.563 1075 216.063 1084.5 216.063 1085.5V1104C216.063 1108 215.563 1120.5 215.563 1120.5L215.063 1138L214.563 1149C214.563 1149 214.063 1156.5 213.063 1160C212.063 1163.5 211.063 1166.5 211.063 1166.5C211.063 1166.5 209.563 1170 209.063 1172.5C208.563 1175 208.563 1177.5 208.563 1180C208.563 1182.5 209.063 1185 209.563 1187C210.063 1189 210.063 1190 210.063 1192.5C210.063 1195 209.063 1202 208.563 1204C208.063 1206 206.563 1211 206.063 1212.5C205.563 1214 203.563 1218 202.063 1220C200.563 1222 198.563 1223.5 200.063 1225.5C201.563 1227.5 207.063 1227.5 209.063 1227.5C211.063 1227.5 280.063 1228.5 280.063 1228.5H291.063C291.063 1228.5 296.063 1228.5 298.063 1228C300.063 1227.5 300.063 1227 300.563 1226C301.063 1225 301.063 1223.5 301.063 1223.5C301.063 1223.5 301.063 1221 300.063 1219.5C299.063 1218 299.063 1218 297.063 1216.5C295.063 1215 289.563 1213.5 284.063 1212C278.563 1210.5 277.063 1209 273.063 1205.5C269.063 1202 263.063 1194 262.063 1192.5C261.063 1191 257.063 1186 254.563 1181.5C252.063 1177 250.063 1169 250.063 1166.5C250.063 1164 251.563 1156 251.563 1156L254.563 1140L258.563 1120.5C258.563 1120.5 261.563 1105 263.563 1097.5C265.563 1090 267.563 1083.5 269.563 1077C271.563 1070.5 273.063 1066 276.563 1055.5C280.063 1045 281.063 1041.5 283.063 1035C285.062 1028.5 286.562 1019.5 288.062 1010.5L288.062 1010.5L288.063 1010.5C289.563 1001.5 290.875 991.661 291.063 979.5C291.267 966.188 290.464 958.677 288.563 945.5C286.911 934.053 282.563 916.5 282.563 916.5C282.563 916.5 276.063 894 276.063 888C276.063 882 278.063 874.5 279.063 866C280.063 857.5 277.563 842 279.563 837.5C281.563 833 287.063 824.5 288.563 821.5C290.063 818.5 291.063 815.5 294.563 803C298.063 790.5 305.563 759.5 305.563 759.5C305.563 759.5 312.063 724.5 312.563 721.5C313.063 718.5 313.563 708 313.563 701.5V645.5C313.563 642 312.563 627 312.563 627C312.563 627 312.063 614.5 311.563 611.5C311.063 608.5 309.563 596 309.063 593.5C308.563 591 305.563 579 305.563 579C305.563 579 302.063 561.5 301.063 557C300.063 552.5 299.563 534.5 299.563 534.5L298.563 519C298.563 519 297.563 510.5 296.563 508C295.563 505.5 292.063 499 291.063 496.5C290.063 494 290.063 490 290.063 488.5C290.063 487 292.063 477 292.563 473C293.063 469 292.563 464.5 292.563 462C292.563 459.5 290.063 446.5 290.063 446.5C290.063 446.5 289.063 439 289.563 436C290.063 433 299.063 412.5 301.063 407L301.064 406.995C303.068 401.484 313.063 374 313.063 375.5M86 375.5C86 368.274 85.465 361.5 85.4825 357C85.5 352.5 84.6764 338.599 85.4825 330M85.4825 330C79 320 75 309.5 73 296C71 282.5 81 264 81 264M85.4825 330C85.4825 330 101 342 113 343.5C125 345 145 341 145 341M152.534 143C151.756 134.383 151 127.5 151 127.5C151 127.5 149 123.5 146 121.5C143 119.5 138.5 117 134.5 108C130.5 98.9999 131.5 88.4999 131.5 88.4999C131.5 88.4999 133 81.9999 136 79.4999C139 76.9999 141.5 79.4999 143 80.6388C144.5 81.7777 145.644 84.259 145.747 83.8609C146.45 81.1465 144.747 74.3609 142.747 67.3609C140.747 60.3609 141 56.9999 141 51.9999C141.5 45.4999 143.002 40.4951 147 32.4999C151 24.4999 158 17.9999 158 17.9999C158 17.9999 165.216 11.8749 170.5 9C176.362 5.81054 182.5 3.49987 186.5 3C186.5 3 193.493 2.08194 198 2.00001C203.699 1.8964 209.5 2.5 212.563 3C215.625 3.50001 222.701 5.81054 228.563 9C233.846 11.8749 241.063 17.9999 241.063 17.9999C241.063 17.9999 248.063 24.4999 252.063 32.4999C256.06 40.4951 257.563 45.4999 258.063 51.9999C258.063 56.9999 258.316 60.3609 256.316 67.3609C254.316 74.3609 252.612 81.1465 253.316 83.8609C253.419 84.259 254.563 81.7777 256.063 80.6388C257.563 79.4999 260.063 76.9999 263.063 79.4999C266.063 81.9999 267.563 88.4999 267.563 88.4999C267.563 88.4999 268.563 98.9999 264.563 108C260.563 117 256.063 119.5 253.063 121.5C250.063 123.5 248.063 127.5 248.063 127.5C248.063 127.5 247.306 134.383 246.529 143M152.534 143C152.534 143 162.398 158.339 171 166L171.178 166.158C176.29 170.712 179.318 173.409 185.5 176.5C189.5 178.5 195.5 179 199.5 179C203.5 179 209.563 178.5 213.563 176.5C219.744 173.409 222.772 170.712 227.885 166.158L228.063 166C236.664 158.339 246.529 143 246.529 143M152.534 143C153.437 153.018 154.369 165.381 154.174 172M154.174 172C154.105 174.327 153.897 175.944 153.5 176.5C151 180 120.4 198.9 118 200.5C115 202.5 108.5 207 102.5 209.5C100.768 210.222 99.6189 210.735 98.5 211.148M154.174 172L158.5 195.5M98.5 211.148C103.967 211.148 111 211.148 115.5 212M175.5 221C175.5 221 182.122 221.311 185.5 223.5C189.636 226.18 192.5 234 192.5 234M146 831.5C146 831.5 144.541 835.858 142.5 837.5C139.896 839.595 134.5 838.5 134.5 838.5M155.5 826C155.5 826 158.091 833.676 162 836.5C164.705 838.454 167.38 839.52 170 839.5C172.103 839.484 175 837.5 175 837.5M176 852.5C176 852.5 179 880 177 886.5C175 893 168 894.5 168 894.5M155.5 897.5C155.5 897.5 148.5 896.5 141 891.5C133.5 886.5 135 860 135 860M313.063 375.5C313.063 377 314.563 388.5 314.563 388.5C314.563 388.5 316.563 407.5 317.063 409.5C317.563 411.5 322.063 426.5 322.063 426.5C322.063 426.5 327.563 443 327.563 447.5C327.563 452 326.063 459 325.563 461.5C325.063 464 321.563 474 321.063 476C320.563 478 319.563 486 319.563 488C319.563 490 319.063 514.5 319.563 519C320.063 523.5 322.063 529.5 322.063 529.5L327.563 547C327.563 547 338.063 579 338.563 580.5C339.063 582 341.063 591.5 341.563 595.5C342.063 599.5 338.563 629 338.563 629C338.563 629 337.063 643.5 336.063 647.5C335.063 651.5 319.563 676.5 318.563 679.5C317.562 682.5 316.063 688.5 316.063 691C316.063 693.5 316.563 697 318.563 701.5C320.563 706 326.063 708.5 327.563 711C329.063 713.5 330.063 718.5 330.563 720C331.063 721.5 332.563 723.5 333.563 724C334.563 724.5 334.063 724.5 338.563 726C342.859 727.432 343.509 727.497 347.912 727.935L348.563 728C353.563 728.5 356.563 728.5 359.063 727C361.563 725.5 374.563 711.5 382.063 702C388.063 694.4 378.063 659.5 374.563 646.5C373.563 640.5 372.963 632.3 374.563 617.5C376.454 600 375.916 603.21 379.063 588C382.063 573.5 383.063 563.5 385.063 556C387.063 548.5 396.563 507 392.563 485.5C388.563 464 385.563 463.5 381.063 450C381.063 447 379.563 449.5 381.063 437.5C382.563 425.5 382.563 399 382.563 390.5C382.563 383.3 381.896 376.5 381.563 374C381.063 370.167 379.763 361.6 378.563 358C377.063 353.5 375.063 342 375.063 340C375.063 338 375.563 331.5 376.063 330C376.563 328.5 379.563 320 380.063 317.5C380.563 315 382.063 307 382.563 302.5C383.063 298 383.063 287 382.563 282.5C382.063 278 382.063 277 380.063 270.5C378.063 264 374.563 256 372.063 251.5C369.563 247 367.063 243 365.563 240.5C364.063 238 362.063 235 356.563 229.5C351.063 224 345.063 220.5 338.563 218.5C332.063 216.5 331.563 216 316.563 214C305.893 212.577 303.319 212.167 300.563 211.148M313.063 375.5C313.063 368.274 313.597 361.5 313.58 357C313.563 352.5 314.386 338.599 313.58 330M313.58 330C320.063 320 324.063 309.5 326.063 296C328.063 282.5 318.063 264 318.063 264M313.58 330C313.58 330 298.063 342 286.063 343.5C274.063 345 254.063 341 254.063 341M246.529 143C245.625 153.018 244.693 165.381 244.889 172M244.889 172C244.957 174.327 245.165 175.944 245.563 176.5C248.063 180 278.663 198.9 281.063 200.5C284.063 202.5 290.563 207 296.563 209.5C298.295 210.222 299.444 210.735 300.563 211.148M244.889 172L240.563 195.5M300.563 211.148C295.095 211.148 288.063 211.148 283.563 212M223.563 221C223.563 221 216.941 221.311 213.563 223.5C209.427 226.18 206.563 234 206.563 234M253.063 831.5C253.063 831.5 254.521 835.858 256.563 837.5C259.167 839.595 264.563 838.5 264.563 838.5M243.563 826C243.563 826 240.972 833.676 237.063 836.5C234.358 838.454 231.682 839.52 229.063 839.5C226.96 839.484 224.063 837.5 224.063 837.5M223.063 852.5C223.063 852.5 220.063 880 222.063 886.5C224.063 893 231.063 894.5 231.063 894.5M243.563 897.5C243.563 897.5 250.563 896.5 258.063 891.5C265.563 886.5 264.063 860 264.063 860" stroke="black" stroke-width="3"/>
</g>
<g id="shins">
<path d="M138 903C147 905.5 157.763 945 159.5 956C161.237 967 160.5 1005.5 159.5 1025.5C159.115 1033.21 158 1078.5 161.5 1101C165 1123.5 173.807 1162.2 173.5 1166.5C173 1173.5 166.5 1175 166.5 1175C166.5 1175 161 1175 157 1166.5C153 1158 137.5 1081 132.5 1064C127.5 1047 120 1020.5 118 995.5C116 970.5 119 948 121 936.5C123 925 129 900.5 138 903Z" fill="#D9D9D9"/>
<path d="M261.062 903C252.062 905.5 241.299 945 239.562 956C237.826 967 238.562 1005.5 239.562 1025.5C239.948 1033.21 241.062 1078.5 237.562 1101C234.062 1123.5 225.255 1162.2 225.562 1166.5C226.062 1173.5 232.562 1175 232.562 1175C232.562 1175 238.062 1175 242.062 1166.5C246.062 1158 261.562 1081 266.562 1064C271.562 1047 279.062 1020.5 281.062 995.5C283.062 970.5 280.062 948 278.062 936.5C276.062 925 270.062 900.5 261.062 903Z" fill="#D9D9D9"/>
<path d="M138 903C147 905.5 157.763 945 159.5 956C161.237 967 160.5 1005.5 159.5 1025.5C159.115 1033.21 158 1078.5 161.5 1101C165 1123.5 173.807 1162.2 173.5 1166.5C173 1173.5 166.5 1175 166.5 1175C166.5 1175 161 1175 157 1166.5C153 1158 137.5 1081 132.5 1064C127.5 1047 120 1020.5 118 995.5C116 970.5 119 948 121 936.5C123 925 129 900.5 138 903Z" stroke="black"/>
<path d="M261.062 903C252.062 905.5 241.299 945 239.562 956C237.826 967 238.562 1005.5 239.562 1025.5C239.948 1033.21 241.062 1078.5 237.562 1101C234.062 1123.5 225.255 1162.2 225.562 1166.5C226.062 1173.5 232.562 1175 232.562 1175C232.562 1175 238.062 1175 242.062 1166.5C246.062 1158 261.562 1081 266.562 1064C271.562 1047 279.062 1020.5 281.062 995.5C283.062 970.5 280.062 948 278.062 936.5C276.062 925 270.062 900.5 261.062 903Z" stroke="black"/>
</g>
<g id="calves">
<path d="M174 951.5C171.5 934.5 167.5 909 169.5 904C171.5 899 175 902 178 907C181 912 183.5 920.5 187.5 932.5C191.5 944.5 189.5 991.5 189 997C188.5 1002.5 185 1022 184 1026.5C183 1031 176 1072 173.5 1061C171 1050 176.5 968.499 174 951.5Z" fill="#D9D9D9"/>
<path d="M225.063 951.5C227.563 934.5 231.563 909 229.563 904C227.563 899 224.063 902 221.063 907C218.063 912 215.563 920.5 211.563 932.5C207.563 944.5 209.562 991.5 210.063 997C210.563 1002.5 214.063 1022 215.063 1026.5C216.063 1031 223.063 1072 225.563 1061C228.063 1050 222.563 968.499 225.063 951.5Z" fill="#D9D9D9"/>
<path d="M174 951.5C171.5 934.5 167.5 909 169.5 904C171.5 899 175 902 178 907C181 912 183.5 920.5 187.5 932.5C191.5 944.5 189.5 991.5 189 997C188.5 1002.5 185 1022 184 1026.5C183 1031 176 1072 173.5 1061C171 1050 176.5 968.499 174 951.5Z" stroke="black"/>
<path d="M225.063 951.5C227.563 934.5 231.563 909 229.563 904C227.563 899 224.063 902 221.063 907C218.063 912 215.563 920.5 211.563 932.5C207.563 944.5 209.562 991.5 210.063 997C210.563 1002.5 214.063 1022 215.063 1026.5C216.063 1031 223.063 1072 225.563 1061C228.063 1050 222.563 968.499 225.063 951.5Z" stroke="black"/>
</g>
<g id="quads">
<path d="M134 540.5C145 545.5 162.5 576 165.5 605C167.266 622.073 161.651 664.082 156 693.5C152.053 714.051 149.5 728.5 145.5 724.5C141.5 720.5 139.5 689 136 673.5C132.5 658 123.808 623.056 122.5 610.5C120 586.5 123 535.5 134 540.5Z" fill="#D9D9D9"/>
<path d="M265.062 540.5C254.062 545.5 236.562 576 233.562 605C231.796 622.073 237.412 664.082 243.062 693.5C247.01 714.051 249.562 728.5 253.562 724.5C257.562 720.5 259.562 689 263.062 673.5C266.562 658 275.255 623.056 276.562 610.5C279.062 586.5 276.062 535.5 265.062 540.5Z" fill="#D9D9D9"/>
<path d="M291.562 590.5C283.562 589.5 268.062 683 265.062 697C262.062 711 260.062 727 258.062 738.5C256.062 750 254.062 781.5 254.062 796.5C254.062 811.5 257.062 825.5 262.562 827.5C268.062 829.5 273.062 825.5 279.562 812.5C286.062 799.5 301.563 740 305.062 715.5C308.562 691 305.063 652.5 303.563 636L303.537 635.719C302.034 619.184 299.517 591.494 291.562 590.5Z" fill="#D9D9D9"/>
<path d="M220.062 631.5C210.562 627.5 212.062 705 213.062 727C214.062 749 214.562 804 220.062 818.5C225.562 833 237.562 821.5 241.062 815.5C244.562 809.5 254.062 775.5 246.062 735C238.062 694.5 229.562 635.5 220.062 631.5Z" fill="#D9D9D9"/>
<path d="M179 631.5C188.5 627.5 187 705 186 727C185 749 184.5 804 179 818.5C173.5 833 161.5 821.5 158 815.5C154.5 809.5 145 775.5 153 735C161 694.5 169.5 635.5 179 631.5Z" fill="#D9D9D9"/>
<path d="M107.5 590.5C115.5 589.5 131 683 134 697C137 711 139 727 141 738.5C143 750 145 781.5 145 796.5C145 811.5 142 825.5 136.5 827.5C131 829.5 126 825.5 119.5 812.5C113 799.5 97.5 740 94 715.5C90.5 691 94 652.5 95.5 636L95.5255 635.719C97.0284 619.184 99.5452 591.494 107.5 590.5Z" fill="#D9D9D9"/>
<path d="M134 540.5C145 545.5 162.5 576 165.5 605C167.266 622.073 161.651 664.082 156 693.5C152.053 714.051 149.5 728.5 145.5 724.5C141.5 720.5 139.5 689 136 673.5C132.5 658 123.808 623.056 122.5 610.5C120 586.5 123 535.5 134 540.5Z" stroke="black"/>
<path d="M265.062 540.5C254.062 545.5 236.562 576 233.562 605C231.796 622.073 237.412 664.082 243.062 693.5C247.01 714.051 249.562 728.5 253.562 724.5C257.562 720.5 259.562 689 263.062 673.5C266.562 658 275.255 623.056 276.562 610.5C279.062 586.5 276.062 535.5 265.062 540.5Z" stroke="black"/>
<path d="M291.562 590.5C283.562 589.5 268.062 683 265.062 697C262.062 711 260.062 727 258.062 738.5C256.062 750 254.062 781.5 254.062 796.5C254.062 811.5 257.062 825.5 262.562 827.5C268.062 829.5 273.062 825.5 279.562 812.5C286.062 799.5 301.563 740 305.062 715.5C308.562 691 305.063 652.5 303.563 636L303.537 635.719C302.034 619.184 299.517 591.494 291.562 590.5Z" stroke="black"/>
<path d="M220.062 631.5C210.562 627.5 212.062 705 213.062 727C214.062 749 214.562 804 220.062 818.5C225.562 833 237.562 821.5 241.062 815.5C244.562 809.5 254.062 775.5 246.062 735C238.062 694.5 229.562 635.5 220.062 631.5Z" stroke="black"/>
<path d="M179 631.5C188.5 627.5 187 705 186 727C185 749 184.5 804 179 818.5C173.5 833 161.5 821.5 158 815.5C154.5 809.5 145 775.5 153 735C161 694.5 169.5 635.5 179 631.5Z" stroke="black"/>
<path d="M107.5 590.5C115.5 589.5 131 683 134 697C137 711 139 727 141 738.5C143 750 145 781.5 145 796.5C145 811.5 142 825.5 136.5 827.5C131 829.5 126 825.5 119.5 812.5C113 799.5 97.5 740 94 715.5C90.5 691 94 652.5 95.5 636L95.5255 635.719C97.0284 619.184 99.5452 591.494 107.5 590.5Z" stroke="black"/>
</g>
<g id="abductors">
<path d="M109 583.5C114 584 121 555 122.5 543C124 531 114.5 515.5 110.5 516.5C106.5 517.5 105.5 534 105 539C104.5 544 104 583 109 583.5Z" fill="#D9D9D9"/>
<path d="M290.062 583.5C285.062 584 278.062 555 276.562 543C275.062 531 284.562 515.5 288.562 516.5C292.562 517.5 293.562 534 294.062 539C294.562 544 295.062 583 290.062 583.5Z" fill="#D9D9D9"/>
<path d="M109 583.5C114 584 121 555 122.5 543C124 531 114.5 515.5 110.5 516.5C106.5 517.5 105.5 534 105 539C104.5 544 104 583 109 583.5Z" stroke="black"/>
<path d="M290.062 583.5C285.062 584 278.062 555 276.562 543C275.062 531 284.562 515.5 288.562 516.5C292.562 517.5 293.562 534 294.062 539C294.562 544 295.062 583 290.062 583.5Z" stroke="black"/>
</g>
<g id="abs">
<path d="M141 365C141 370 144 373 148 371C152 369 157 367 162 366C167 365 183.5 366 187 364.5C190.5 363 191.5 361 192.5 357C193.5 353 194 337.5 190.5 335.5C187 333.5 163.5 337 158.5 339C153.5 341 147.5 346 145.5 349.5C143.5 353 141 360 141 365Z" fill="#D9D9D9"/>
<path d="M258.063 365C258.063 370 255.063 373 251.063 371C247.063 369 242.063 367 237.063 366C232.063 365 215.563 366 212.063 364.5C208.563 363 207.563 361 206.563 357C205.563 353 205.063 337.5 208.563 335.5C212.063 333.5 235.563 337 240.563 339C245.563 341 251.563 346 253.563 349.5C255.563 353 258.063 360 258.063 365Z" fill="#D9D9D9"/>
<path d="M210.563 371C216.563 368 249.063 368.5 255.563 377C262.063 385.5 261.563 412.5 254.063 413.5C246.563 414.5 229.063 411.5 214.563 409.5C207.682 408.551 207.063 396.5 206.563 392.5C206.063 388.5 207.41 372.576 210.563 371Z" fill="#D9D9D9"/>
<path d="M188.5 371C182.5 368 150 368.5 143.5 377C137 385.5 137.5 412.5 145 413.5C152.5 414.5 170 411.5 184.5 409.5C191.38 408.551 192 396.5 192.5 392.5C193 388.5 191.653 372.576 188.5 371Z" fill="#D9D9D9"/>
<path d="M176 470C172.5 472.5 171 475.5 154.5 476.5C138 477.5 142 428.5 143.5 422.5C145 416.5 179.5 414.5 185.5 416.5C191.5 418.5 193.832 447 190.5 453.5C187.168 460 179.5 467.5 176 470Z" fill="#D9D9D9"/>
<path d="M223.063 470C226.563 472.5 228.063 475.5 244.563 476.5C261.063 477.5 257.063 428.5 255.563 422.5C254.063 416.5 219.563 414.5 213.563 416.5C207.563 418.5 205.231 447 208.563 453.5C211.895 460 219.563 467.5 223.063 470Z" fill="#D9D9D9"/>
<path d="M208.563 577C214.063 586 219.562 581.5 221.563 578.5C222.508 577.082 231.656 560.791 238.563 541C246.265 518.925 255.063 499.5 247.063 488.5C243.587 483.72 238.063 481 233.563 480C229.063 479 221.063 477.5 216.563 478C212.063 478.5 209.063 480 207.563 483.5C206.063 487 205.251 516.912 205.231 535C205.209 554.731 206.185 573.109 208.563 577Z" fill="#D9D9D9"/>
<path d="M190.5 577C185 586 179.5 581.5 177.5 578.5C176.555 577.082 167.406 560.791 160.5 541C152.797 518.925 144 499.5 152 488.5C155.476 483.72 161 481 165.5 480C170 479 178 477.5 182.5 478C187 478.5 190 480 191.5 483.5C193 487 193.812 516.912 193.832 535C193.854 554.731 192.878 573.109 190.5 577Z" fill="#D9D9D9"/>
<path d="M141 365C141 370 144 373 148 371C152 369 157 367 162 366C167 365 183.5 366 187 364.5C190.5 363 191.5 361 192.5 357C193.5 353 194 337.5 190.5 335.5C187 333.5 163.5 337 158.5 339C153.5 341 147.5 346 145.5 349.5C143.5 353 141 360 141 365Z" stroke="black"/>
<path d="M258.063 365C258.063 370 255.063 373 251.063 371C247.063 369 242.063 367 237.063 366C232.063 365 215.563 366 212.063 364.5C208.563 363 207.563 361 206.563 357C205.563 353 205.063 337.5 208.563 335.5C212.063 333.5 235.563 337 240.563 339C245.563 341 251.563 346 253.563 349.5C255.563 353 258.063 360 258.063 365Z" stroke="black"/>
<path d="M210.563 371C216.563 368 249.063 368.5 255.563 377C262.063 385.5 261.563 412.5 254.063 413.5C246.563 414.5 229.063 411.5 214.563 409.5C207.682 408.551 207.063 396.5 206.563 392.5C206.063 388.5 207.41 372.576 210.563 371Z" stroke="black"/>
<path d="M188.5 371C182.5 368 150 368.5 143.5 377C137 385.5 137.5 412.5 145 413.5C152.5 414.5 170 411.5 184.5 409.5C191.38 408.551 192 396.5 192.5 392.5C193 388.5 191.653 372.576 188.5 371Z" stroke="black"/>
<path d="M176 470C172.5 472.5 171 475.5 154.5 476.5C138 477.5 142 428.5 143.5 422.5C145 416.5 179.5 414.5 185.5 416.5C191.5 418.5 193.832 447 190.5 453.5C187.168 460 179.5 467.5 176 470Z" stroke="black"/>
<path d="M223.063 470C226.563 472.5 228.063 475.5 244.563 476.5C261.063 477.5 257.063 428.5 255.563 422.5C254.063 416.5 219.563 414.5 213.563 416.5C207.563 418.5 205.231 447 208.563 453.5C211.895 460 219.563 467.5 223.063 470Z" stroke="black"/>
<path d="M208.563 577C214.063 586 219.562 581.5 221.563 578.5C222.508 577.082 231.656 560.791 238.563 541C246.265 518.925 255.063 499.5 247.063 488.5C243.587 483.72 238.063 481 233.563 480C229.063 479 221.063 477.5 216.563 478C212.063 478.5 209.063 480 207.563 483.5C206.063 487 205.251 516.912 205.231 535C205.209 554.731 206.185 573.109 208.563 577Z" stroke="black"/>
<path d="M190.5 577C185 586 179.5 581.5 177.5 578.5C176.555 577.082 167.406 560.791 160.5 541C152.797 518.925 144 499.5 152 488.5C155.476 483.72 161 481 165.5 480C170 479 178 477.5 182.5 478C187 478.5 190 480 191.5 483.5C193 487 193.812 516.912 193.832 535C193.854 554.731 192.878 573.109 190.5 577Z" stroke="black"/>
</g>
<g id="obliques">
<path d="M136 348.5C138.5 350 136.5 352.5 135.5 361C134.5 369.5 137.5 383 133.5 383C129.5 383 114.5 372 111 369.5C107.5 367 94 355.5 92 352.5C90 349.5 90.5 347 95 347C97.19 347 106.367 349.327 115.5 349.5C125.133 349.682 134.717 347.73 136 348.5Z" fill="#D9D9D9"/>
<path d="M134.5 417C134.5 410.5 135 395 134.5 392C134 389 133 388 128 385.5C124.915 383.981 116.86 379.013 113 376C104.314 369.219 97.7136 360.196 94 359.5C86 358 104.5 410 107.5 417C110.5 424 134.5 461.5 137.5 457.5C138.877 455.664 136.268 447.137 135.5 439C134.732 430.863 134.5 423.5 134.5 417Z" fill="#D9D9D9"/>
<path d="M263.063 348.5C260.563 350 262.563 352.5 263.563 361C264.563 369.5 261.563 383 265.563 383C269.563 383 284.563 372 288.063 369.5C291.563 367 305.063 355.5 307.063 352.5C309.063 349.5 308.563 347 304.063 347C301.872 347 292.695 349.327 283.563 349.5C273.93 349.682 264.346 347.73 263.063 348.5Z" fill="#D9D9D9"/>
<path d="M264.563 417C264.563 410.5 264.063 395 264.563 392C265.063 389 266.063 388 271.063 385.5C274.147 383.981 282.203 379.013 286.063 376C294.749 369.219 301.349 360.196 305.063 359.5C313.063 358 294.563 410 291.563 417C288.562 424 264.563 461.5 261.563 457.5C260.185 455.664 262.794 447.137 263.563 439C264.331 430.863 264.563 423.5 264.563 417Z" fill="#D9D9D9"/>
<path d="M253.063 528C250.563 523.5 255.563 488 258.563 479C261.563 470 270.563 457 271.563 455.5C272.563 454 277.063 446.5 282.563 449C288.063 451.5 286.563 467.5 285.063 479C283.563 490.5 282.563 496 277.063 504.5C271.563 513 255.563 532.5 253.063 528Z" fill="#D9D9D9"/>
<path d="M146 528C148.5 523.5 143.5 488 140.5 479C137.5 470 128.5 457 127.5 455.5C126.5 454 122 446.5 116.5 449C111 451.5 112.5 467.5 114 479C115.5 490.5 116.5 496 122 504.5C127.5 513 143.5 532.5 146 528Z" fill="#D9D9D9"/>
<path d="M136 348.5C138.5 350 136.5 352.5 135.5 361C134.5 369.5 137.5 383 133.5 383C129.5 383 114.5 372 111 369.5C107.5 367 94 355.5 92 352.5C90 349.5 90.5 347 95 347C97.19 347 106.367 349.327 115.5 349.5C125.133 349.682 134.717 347.73 136 348.5Z" stroke="black"/>
<path d="M134.5 417C134.5 410.5 135 395 134.5 392C134 389 133 388 128 385.5C124.915 383.981 116.86 379.013 113 376C104.314 369.219 97.7136 360.196 94 359.5C86 358 104.5 410 107.5 417C110.5 424 134.5 461.5 137.5 457.5C138.877 455.664 136.268 447.137 135.5 439C134.732 430.863 134.5 423.5 134.5 417Z" stroke="black"/>
<path d="M263.063 348.5C260.563 350 262.563 352.5 263.563 361C264.563 369.5 261.563 383 265.563 383C269.563 383 284.563 372 288.063 369.5C291.563 367 305.063 355.5 307.063 352.5C309.063 349.5 308.563 347 304.063 347C301.872 347 292.695 349.327 283.563 349.5C273.93 349.682 264.346 347.73 263.063 348.5Z" stroke="black"/>
<path d="M264.563 417C264.563 410.5 264.063 395 264.563 392C265.063 389 266.063 388 271.063 385.5C274.147 383.981 282.203 379.013 286.063 376C294.749 369.219 301.349 360.196 305.063 359.5C313.063 358 294.563 410 291.563 417C288.562 424 264.563 461.5 261.563 457.5C260.185 455.664 262.794 447.137 263.563 439C264.331 430.863 264.563 423.5 264.563 417Z" stroke="black"/>
<path d="M253.063 528C250.563 523.5 255.563 488 258.563 479C261.563 470 270.563 457 271.563 455.5C272.563 454 277.063 446.5 282.563 449C288.063 451.5 286.563 467.5 285.063 479C283.563 490.5 282.563 496 277.063 504.5C271.563 513 255.563 532.5 253.063 528Z" stroke="black"/>
<path d="M146 528C148.5 523.5 143.5 488 140.5 479C137.5 470 128.5 457 127.5 455.5C126.5 454 122 446.5 116.5 449C111 451.5 112.5 467.5 114 479C115.5 490.5 116.5 496 122 504.5C127.5 513 143.5 532.5 146 528Z" stroke="black"/>
</g>
<g id="chest">
<path d="M181 244C197 240.5 164 224.5 143.5 225.5C123 226.5 105 239 98.4999 247C91.9999 255 72.5 293 85.5 285C98.4999 277 108 271 128.5 262.5C149 254 165 247.5 181 244Z" fill="#D9D9D9"/>
<path d="M189 252C192.5 257 197.5 298 190 305.5C186.29 309.21 151.5 298 135.5 295C119.5 292 105 291 93.5 292C82 293 77 294.5 84.5 289C92 283.5 121.5 269 133 264.5C144.5 260 185.5 247 189 252Z" fill="#D9D9D9"/>
<path d="M186.5 326C195 321 190 311.5 173.5 307C157 302.5 147.215 299.949 130 297.5C114.684 295.321 105.5 294.5 90.5 294.5C86.0047 294.5 81.5 295 81 301C80.5 307 82.5 313.5 88.5 323C94.5 332.5 102 337 109 338.5C116 340 146.5 337 152 336C157.5 335 178 331 186.5 326Z" fill="#D9D9D9"/>
<path d="M212.563 326C204.063 321 209.063 311.5 225.563 307C242.063 302.5 251.848 299.949 269.063 297.5C284.378 295.321 293.563 294.5 308.563 294.5C313.058 294.5 317.563 295 318.063 301C318.563 307 316.563 313.5 310.563 323C304.563 332.5 297.063 337 290.063 338.5C283.063 340 252.563 337 247.063 336C241.563 335 221.063 331 212.563 326Z" fill="#D9D9D9"/>
<path d="M210.063 252C206.563 257 201.563 298 209.063 305.5C212.773 309.21 247.562 298 263.563 295C279.563 292 294.063 291 305.563 292C317.063 293 322.063 294.5 314.563 289C307.063 283.5 277.563 269 266.063 264.5C254.563 260 213.563 247 210.063 252Z" fill="#D9D9D9"/>
<path d="M218.063 244C202.063 240.5 235.063 224.5 255.563 225.5C276.063 226.5 294.063 239 300.563 247C307.063 255 326.562 293 313.563 285C300.563 277 291.063 271 270.563 262.5C250.063 254 234.063 247.5 218.063 244Z" fill="#D9D9D9"/>
<path d="M181 244C197 240.5 164 224.5 143.5 225.5C123 226.5 105 239 98.4999 247C91.9999 255 72.5 293 85.5 285C98.4999 277 108 271 128.5 262.5C149 254 165 247.5 181 244Z" stroke="black"/>
<path d="M189 252C192.5 257 197.5 298 190 305.5C186.29 309.21 151.5 298 135.5 295C119.5 292 105 291 93.5 292C82 293 77 294.5 84.5 289C92 283.5 121.5 269 133 264.5C144.5 260 185.5 247 189 252Z" stroke="black"/>
<path d="M186.5 326C195 321 190 311.5 173.5 307C157 302.5 147.215 299.949 130 297.5C114.684 295.321 105.5 294.5 90.5 294.5C86.0047 294.5 81.5 295 81 301C80.5 307 82.5 313.5 88.5 323C94.5 332.5 102 337 109 338.5C116 340 146.5 337 152 336C157.5 335 178 331 186.5 326Z" stroke="black"/>
<path d="M212.563 326C204.063 321 209.063 311.5 225.563 307C242.063 302.5 251.848 299.949 269.063 297.5C284.378 295.321 293.563 294.5 308.563 294.5C313.058 294.5 317.563 295 318.063 301C318.563 307 316.563 313.5 310.563 323C304.563 332.5 297.063 337 290.063 338.5C283.063 340 252.563 337 247.063 336C241.563 335 221.063 331 212.563 326Z" stroke="black"/>
<path d="M210.063 252C206.563 257 201.563 298 209.063 305.5C212.773 309.21 247.562 298 263.563 295C279.563 292 294.063 291 305.563 292C317.063 293 322.063 294.5 314.563 289C307.063 283.5 277.563 269 266.063 264.5C254.563 260 213.563 247 210.063 252Z" stroke="black"/>
<path d="M218.063 244C202.063 240.5 235.063 224.5 255.563 225.5C276.063 226.5 294.063 239 300.563 247C307.063 255 326.562 293 313.563 285C300.563 277 291.063 271 270.563 262.5C250.063 254 234.063 247.5 218.063 244Z" stroke="black"/>
</g>
<g id="traps">
<path d="M150.5 188.5C152 188.5 152.142 195.259 153.5 199.5C155.026 204.267 159 211 155.5 211.5C152 212 122.5 210 121 207.5C119.5 205 149 188.5 150.5 188.5Z" fill="#D9D9D9"/>
<path d="M248.562 188.5C247.062 188.5 246.92 195.259 245.562 199.5C244.037 204.267 240.062 211 243.562 211.5C247.062 212 276.562 210 278.062 207.5C279.562 205 250.062 188.5 248.562 188.5Z" fill="#D9D9D9"/>
<path d="M150.5 188.5C152 188.5 152.142 195.259 153.5 199.5C155.026 204.267 159 211 155.5 211.5C152 212 122.5 210 121 207.5C119.5 205 149 188.5 150.5 188.5Z" stroke="black"/>
<path d="M248.562 188.5C247.062 188.5 246.92 195.259 245.562 199.5C244.037 204.267 240.062 211 243.562 211.5C247.062 212 276.562 210 278.062 207.5C279.562 205 250.062 188.5 248.562 188.5Z" stroke="black"/>
</g>
<g id="front-delts">
<path d="M122 226C104.425 232.113 93.4249 242.923 79.5 258.5C64.4563 275.329 56 294.5 52.5 305.5C49 316.5 45.5 302.006 45.5 298C45.5 285.5 47.8726 273.467 50.5 264.5C53.7226 253.502 58.8639 243.202 62 237.5C67.5 227.5 74 222 85 219.5C96 217 112 218 112 218C112 218 133.5 222 122 226Z" fill="#D9D9D9"/>
<path d="M277.063 226C294.637 232.113 305.638 242.923 319.562 258.5C334.606 275.329 343.062 294.5 346.562 305.5C350.062 316.5 353.562 302.006 353.562 298C353.562 285.5 351.19 273.467 348.562 264.5C345.34 253.502 340.199 243.202 337.062 237.5C331.562 227.5 325.062 222 314.062 219.5C303.062 217 287.063 218 287.063 218C287.063 218 265.563 222 277.063 226Z" fill="#D9D9D9"/>
<path d="M122 226C104.425 232.113 93.4249 242.923 79.5 258.5C64.4563 275.329 56 294.5 52.5 305.5C49 316.5 45.5 302.006 45.5 298C45.5 285.5 47.8726 273.467 50.5 264.5C53.7226 253.502 58.8639 243.202 62 237.5C67.5 227.5 74 222 85 219.5C96 217 112 218 112 218C112 218 133.5 222 122 226Z" stroke="black"/>
<path d="M277.063 226C294.637 232.113 305.638 242.923 319.562 258.5C334.606 275.329 343.062 294.5 346.562 305.5C350.062 316.5 353.562 302.006 353.562 298C353.562 285.5 351.19 273.467 348.562 264.5C345.34 253.502 340.199 243.202 337.062 237.5C331.562 227.5 325.062 222 314.062 219.5C303.062 217 287.063 218 287.063 218C287.063 218 265.563 222 277.063 226Z" stroke="black"/>
</g>
<g id="side-delts">
<path d="M61.5 225C67 223.98 60.8745 232.536 56 239.5C52.5 244.5 44.114 266.529 42 284.999C40.69 296.445 43.0083 303.023 42 314.499C41.4827 320.386 40.5 326.5 38 332C36.12 336.136 34.2404 338.494 32 337C29 335 26.5 318 26.5 318C26.5 318 23.4957 300.661 24 289.5C24.5289 277.793 25.2615 270.925 29.5 259.999C33.4604 249.79 38.0501 241.031 46 233.5C50 229.711 56 226.02 61.5 225Z" fill="#D9D9D9"/>
<path d="M337.563 225C332.063 223.98 338.188 232.536 343.063 239.5C346.563 244.5 354.949 266.529 357.063 284.999C358.373 296.445 356.054 303.023 357.063 314.499C357.58 320.386 358.563 326.5 361.063 332C362.943 336.136 364.822 338.494 367.063 337C370.063 335 372.563 318 372.563 318C372.563 318 375.567 300.661 375.063 289.5C374.534 277.793 373.801 270.925 369.563 259.999C365.602 249.79 361.012 241.031 353.063 233.5C349.063 229.711 343.063 226.02 337.563 225Z" fill="#D9D9D9"/>
<path d="M61.5 225C67 223.98 60.8745 232.536 56 239.5C52.5 244.5 44.114 266.529 42 284.999C40.69 296.445 43.0083 303.023 42 314.499C41.4827 320.386 40.5 326.5 38 332C36.12 336.136 34.2404 338.494 32 337C29 335 26.5 318 26.5 318C26.5 318 23.4957 300.661 24 289.5C24.5289 277.793 25.2615 270.925 29.5 259.999C33.4604 249.79 38.0501 241.031 46 233.5C50 229.711 56 226.02 61.5 225Z" stroke="black"/>
<path d="M337.563 225C332.063 223.98 338.188 232.536 343.063 239.5C346.563 244.5 354.949 266.529 357.063 284.999C358.373 296.445 356.054 303.023 357.063 314.499C357.58 320.386 358.563 326.5 361.063 332C362.943 336.136 364.822 338.494 367.063 337C370.063 335 372.563 318 372.563 318C372.563 318 375.567 300.661 375.063 289.5C374.534 277.793 373.801 270.925 369.563 259.999C365.602 249.79 361.012 241.031 353.063 233.5C349.063 229.711 343.063 226.02 337.563 225Z" stroke="black"/>
</g>
<g id="biceps">
<path d="M66.5 300C71 307 74.5 324 75.5 330.5C76.5 337 81.3221 370.48 77 395.5C73.6365 414.971 67 436.5 61 443.5C56.7575 448.45 51.5 451.5 45.5 447.5C39.5 443.5 39 415 39 400.5C39 391.5 40.5 372.5 42 363.5C47.75 329 62 293 66.5 300Z" fill="#D9D9D9"/>
<path d="M42 335C38.5 336.5 31.3718 344.758 28 353C23.5458 363.888 22.9005 373.954 22.027 387.579L22 388C21.2145 400.246 21.8507 407.284 22.938 419.314L23 420C23.5839 426.464 24.5 431.5 25.5 435C26.5 438.5 27.5 440.5 30 442C32.5 443.5 34.7698 439.934 35.5 437.5C37 432.5 35.7827 419.227 35.5 407.5C35.2365 396.568 34.6815 390.404 35.5 379.5C36.0747 371.844 37 363.5 38 360C39 356.5 45.5 333.5 42 335Z" fill="#D9D9D9"/>
<path d="M332.563 300C328.063 307 324.563 324 323.563 330.5C322.563 337 317.74 370.48 322.063 395.5C325.426 414.971 332.063 436.5 338.063 443.5C342.305 448.45 347.563 451.5 353.563 447.5C359.563 443.5 360.063 415 360.063 400.5C360.063 391.5 358.563 372.5 357.063 363.5C351.313 329 337.063 293 332.563 300Z" fill="#D9D9D9"/>
<path d="M357.063 335C360.563 336.5 367.691 344.758 371.063 353C375.517 363.888 376.162 373.954 377.036 387.579L377.063 388C377.848 400.246 377.212 407.284 376.125 419.314L376.063 420C375.479 426.464 374.563 431.5 373.563 435C372.563 438.5 371.563 440.5 369.063 442C366.563 443.5 364.293 439.934 363.563 437.5C362.063 432.5 363.28 419.227 363.563 407.5C363.826 396.568 364.381 390.404 363.563 379.5C362.988 371.844 362.063 363.5 361.063 360C360.063 356.5 353.563 333.5 357.063 335Z" fill="#D9D9D9"/>
<path d="M66.5 300C71 307 74.5 324 75.5 330.5C76.5 337 81.3221 370.48 77 395.5C73.6365 414.971 67 436.5 61 443.5C56.7575 448.45 51.5 451.5 45.5 447.5C39.5 443.5 39 415 39 400.5C39 391.5 40.5 372.5 42 363.5C47.75 329 62 293 66.5 300Z" stroke="black"/>
<path d="M42 335C38.5 336.5 31.3718 344.758 28 353C23.5458 363.888 22.9005 373.954 22.027 387.579L22 388C21.2145 400.246 21.8507 407.284 22.938 419.314L23 420C23.5839 426.464 24.5 431.5 25.5 435C26.5 438.5 27.5 440.5 30 442C32.5 443.5 34.7698 439.934 35.5 437.5C37 432.5 35.7827 419.227 35.5 407.5C35.2365 396.568 34.6815 390.404 35.5 379.5C36.0747 371.844 37 363.5 38 360C39 356.5 45.5 333.5 42 335Z" stroke="black"/>
<path d="M332.563 300C328.063 307 324.563 324 323.563 330.5C322.563 337 317.74 370.48 322.063 395.5C325.426 414.971 332.063 436.5 338.063 443.5C342.305 448.45 347.563 451.5 353.563 447.5C359.563 443.5 360.063 415 360.063 400.5C360.063 391.5 358.563 372.5 357.063 363.5C351.313 329 337.063 293 332.563 300Z" stroke="black"/>
<path d="M357.063 335C360.563 336.5 367.691 344.758 371.063 353C375.517 363.888 376.162 373.954 377.036 387.579L377.063 388C377.848 400.246 377.212 407.284 376.125 419.314L376.063 420C375.479 426.464 374.563 431.5 373.563 435C372.563 438.5 371.563 440.5 369.063 442C366.563 443.5 364.293 439.934 363.563 437.5C362.063 432.5 363.28 419.227 363.563 407.5C363.826 396.568 364.381 390.404 363.563 379.5C362.988 371.844 362.063 363.5 361.063 360C360.063 356.5 353.563 333.5 357.063 335Z" stroke="black"/>
</g>
<g id="forearms">
<path d="M37 449C41.5 448.5 47.5 454.5 49.5 458.5C51.5 462.5 52.8241 476.712 54 488.5C55.2788 501.319 55.0019 508.672 54.5239 521.367L54.5 522C54.0866 532.99 52.8642 539.044 52.5 550C52.1821 559.563 52.3897 564.933 52.5 574.5C52.705 592.277 54.3846 604.039 52.5 621C52 625.5 51.5 630 49.5 630C45.5 629 45 624 45 624C45 624 44.1681 606.851 42.5 596C40.334 581.91 37.6192 574.288 34 560.5C30.3911 546.751 26.8197 539.433 24 525.5C20.9589 510.473 19.531 501.832 19.5 486.5C19.485 479.07 19.5 475 20.5 467.5C21.2733 461.7 22.6918 457.96 27 454C30.2148 451.046 32.5 449.5 37 449Z" fill="#D9D9D9"/>
<path d="M63 455C66 456 69.8706 467.443 72.5 476.5C75.3391 486.28 75.1015 492.817 75 503C74.9101 512.016 74.0614 516.62 72.5 525.5C71.0318 533.85 69.5169 538.405 67 546.5C64.5979 554.226 63.5 560 60 566C58.5415 568.5 55.1192 567.666 55.5 565C56 561.5 56.5 556.5 56.5 556.5C56.5 556.5 57.4833 548.584 58 543.5C59.0886 532.787 60.0449 526.768 60 516C59.9575 505.817 58.7701 500.155 58 490C57.4077 482.19 56.7136 477.83 56.5 470C56.3775 465.511 56.161 460.534 56.5 458.5C57 455.5 60 454 63 455Z" fill="#D9D9D9"/>
<path d="M32 632.5C32.5 634 35 639.5 37 639.5C40.0563 639.5 42.5 637 42.5 632.5C42.5 628 41.6746 616.008 40.5 605.5C39.4478 596.087 37 581.5 37 581.5L30.5 558.5L24 539C24 539 20.7631 526.905 19.5 519C18.139 510.481 17.5 497 17.5 497C17.5 497 17 494 15 494C13 494 11.8216 498.284 11.5 501.5C11 506.5 12.1367 512.195 13 519C13.998 526.866 15.1233 531.191 16.5 539C18.0496 547.789 18.7514 552.748 20.5 561.5C22.2637 570.327 23.9456 575.134 25.5 584C26.7256 590.99 27.0098 594.973 28 602C28.9632 608.836 29.7274 612.64 30.5 619.5C31.3112 626.703 31.5 631 32 632.5Z" fill="#D9D9D9"/>
<path d="M336.063 455C333.063 456 329.192 467.443 326.563 476.5C323.723 486.28 323.961 492.817 324.063 503C324.15 511.789 324.959 516.386 326.446 524.839L326.563 525.5C328.031 533.85 329.546 538.405 332.063 546.5C334.465 554.226 335.563 560 339.063 566C340.521 568.5 343.943 567.666 343.563 565C343.063 561.5 342.563 556.5 342.563 556.5C342.563 556.5 341.579 548.584 341.063 543.5C339.974 532.788 339.018 526.768 339.063 516C339.105 505.817 340.292 500.155 341.063 490C341.655 482.19 342.349 477.83 342.563 470C342.685 465.511 342.902 460.534 342.563 458.5C342.063 455.5 339.063 454 336.063 455Z" fill="#D9D9D9"/>
<path d="M362.063 449C357.563 448.5 351.563 454.5 349.563 458.5C347.563 462.5 346.238 476.712 345.063 488.5C343.784 501.319 344.061 508.672 344.539 521.367L344.563 522C344.976 532.99 346.198 539.044 346.563 550C346.88 559.563 346.673 564.933 346.563 574.5C346.358 592.277 344.678 604.039 346.563 621C347.063 625.5 347.563 630 349.563 630C353.563 629 354.063 624 354.063 624C354.063 624 354.894 606.851 356.563 596C358.729 581.91 361.443 574.289 365.063 560.5C368.671 546.751 372.243 539.433 375.063 525.5C378.104 510.473 379.532 501.832 379.563 486.5C379.578 479.07 379.563 475 378.563 467.5C377.789 461.7 376.371 457.96 372.063 454C368.848 451.046 366.563 449.5 362.063 449Z" fill="#D9D9D9"/>
<path d="M367.063 632.5C366.563 634 364.063 639.5 362.063 639.5C359.006 639.5 356.563 637 356.563 632.5C356.563 628 357.388 616.008 358.563 605.5C359.615 596.087 362.063 581.5 362.063 581.5L368.563 558.5L375.063 539C375.063 539 378.299 526.906 379.563 519C380.924 510.481 381.563 497 381.563 497C381.563 497 382.063 494 384.063 494C386.062 494 387.241 498.284 387.563 501.5C388.063 506.5 386.926 512.195 386.063 519C385.065 526.866 383.939 531.191 382.563 539C381.013 547.789 380.311 552.748 378.563 561.5C376.799 570.327 375.117 575.134 373.563 584C372.337 590.99 372.053 594.973 371.063 602C370.099 608.836 369.335 612.64 368.563 619.5C367.751 626.703 367.563 631 367.063 632.5Z" fill="#D9D9D9"/>
<path d="M326.563 525.5C328.031 533.85 329.546 538.405 332.063 546.5C334.465 554.226 335.563 560 339.063 566C340.521 568.5 343.943 567.666 343.563 565C343.063 561.5 342.563 556.5 342.563 556.5C342.563 556.5 341.579 548.584 341.063 543.5C339.974 532.788 339.018 526.768 339.063 516C339.105 505.817 340.292 500.155 341.063 490C341.655 482.19 342.349 477.83 342.563 470C342.685 465.511 342.902 460.534 342.563 458.5C342.063 455.5 339.063 454 336.063 455C333.063 456 329.192 467.443 326.563 476.5C323.723 486.28 323.961 492.817 324.063 503C324.15 511.789 324.959 516.386 326.446 524.839M326.563 525.5L326.446 524.839M326.563 525.5C326.523 525.277 326.485 525.057 326.446 524.839M362.063 449C357.563 448.5 351.563 454.5 349.563 458.5C347.563 462.5 346.238 476.712 345.063 488.5C343.784 501.319 344.061 508.672 344.539 521.367L344.563 522C344.976 532.99 346.198 539.044 346.563 550C346.88 559.563 346.673 564.933 346.563 574.5C346.358 592.277 344.678 604.039 346.563 621C347.063 625.5 347.563 630 349.563 630C353.563 629 354.063 624 354.063 624C354.063 624 354.894 606.851 356.563 596C358.729 581.91 361.443 574.289 365.063 560.5C368.671 546.751 372.243 539.433 375.063 525.5C378.104 510.473 379.532 501.832 379.563 486.5C379.578 479.07 379.563 475 378.563 467.5C377.789 461.7 376.371 457.96 372.063 454C368.848 451.046 366.563 449.5 362.063 449ZM367.063 632.5C366.563 634 364.063 639.5 362.063 639.5C359.006 639.5 356.563 637 356.563 632.5C356.563 628 357.388 616.008 358.563 605.5C359.615 596.087 362.063 581.5 362.063 581.5L368.563 558.5L375.063 539C375.063 539 378.299 526.906 379.563 519C380.924 510.481 381.563 497 381.563 497C381.563 497 382.063 494 384.063 494C386.063 494 387.241 498.284 387.563 501.5C388.063 506.5 386.926 512.195 386.063 519C385.065 526.866 383.939 531.191 382.563 539C381.013 547.789 380.311 552.748 378.563 561.5C376.799 570.327 375.117 575.134 373.563 584C372.337 590.99 372.053 594.973 371.063 602C370.099 608.836 369.335 612.64 368.563 619.5C367.751 626.703 367.563 631 367.063 632.5ZM63 455C66 456 69.8706 467.443 72.5 476.5C75.3391 486.28 75.1015 492.817 75 503C74.9101 512.016 74.0614 516.62 72.5 525.5C71.0318 533.85 69.5169 538.405 67 546.5C64.5979 554.226 63.5 560 60 566C58.5415 568.5 55.1192 567.666 55.5 565C56 561.5 56.5 556.5 56.5 556.5C56.5 556.5 57.4833 548.584 58 543.5C59.0886 532.787 60.0449 526.768 60 516C59.9575 505.817 58.7701 500.155 58 490C57.4077 482.19 56.7136 477.83 56.5 470C56.3775 465.511 56.161 460.534 56.5 458.5C57 455.5 60 454 63 455ZM37 449C41.5 448.5 47.5 454.5 49.5 458.5C51.5 462.5 52.8241 476.712 54 488.5C55.2788 501.319 55.0019 508.672 54.5239 521.367L54.5 522C54.0866 532.99 52.8642 539.044 52.5 550C52.1821 559.563 52.3897 564.933 52.5 574.5C52.705 592.277 54.3846 604.039 52.5 621C52 625.5 51.5 630 49.5 630C45.5 629 45 624 45 624C45 624 44.1681 606.851 42.5 596C40.334 581.91 37.6192 574.288 34 560.5C30.3911 546.751 26.8197 539.433 24 525.5C20.9589 510.473 19.531 501.832 19.5 486.5C19.485 479.07 19.5 475 20.5 467.5C21.2733 461.7 22.6918 457.96 27 454C30.2148 451.046 32.5 449.5 37 449ZM32 632.5C32.5 634 35 639.5 37 639.5C40.0563 639.5 42.5 637 42.5 632.5C42.5 628 41.6746 616.008 40.5 605.5C39.4478 596.087 37 581.5 37 581.5L30.5 558.5L24 539C24 539 20.7631 526.905 19.5 519C18.139 510.481 17.5 497 17.5 497C17.5 497 17 494 15 494C13 494 11.8216 498.284 11.5 501.5C11 506.5 12.1367 512.195 13 519C13.998 526.866 15.1233 531.191 16.5 539C18.0496 547.789 18.7514 552.748 20.5 561.5C22.2637 570.327 23.9456 575.134 25.5 584C26.7256 590.99 27.0098 594.973 28 602C28.9632 608.836 29.7274 612.64 30.5 619.5C31.3112 626.703 31.5 631 32 632.5Z" stroke="black"/>
</g>
</g>
<defs>
<filter id="filter0_d_2013_289" x="0.0276642" y="0.488281" width="399.007" height="1237.51" filterUnits="userSpaceOnUse" color-interpolation-filters="sRGB">
<feFlood flood-opacity="0" result="BackgroundImageFix"/>
<feColorMatrix in="SourceAlpha" type="matrix" values="0 0 0 0 0 0 0 0 0 0 0 0 0 0 0 0 0 0 127 0" result="hardAlpha"/>
<feOffset dy="4"/>
<feGaussianBlur stdDeviation="2"/>
<feComposite in2="hardAlpha" operator="out"/>
<feColorMatrix type="matrix" values="0 0 0 0 0 0 0 0 0 0 0 0 0 0 0 0 0 0 0.25 0"/>
<feBlend mode="normal" in2="BackgroundImageFix" result="effect1_dropShadow_2013_289"/>
<feBlend mode="normal" in="SourceGraphic" in2="effect1_dropShadow_2013_289" result="shape"/>
</filter>
</defs>
</svg>
